<mxfile host="app.diagrams.net" modified="2023-11-28T10:34:22.464Z" agent="Mozilla/5.0 (Windows NT 10.0; Win64; x64) AppleWebKit/537.36 (KHTML, like Gecko) Chrome/119.0.0.0 Safari/537.36 Edg/119.0.0.0" etag="FS5Hl433Z1H_BG67K3_D" version="22.1.4" type="device">
  <diagram name="Page-1" id="eCuE5EZKTcSu41lUQEn6">
    <mxGraphModel dx="1508" dy="1334" grid="1" gridSize="10" guides="1" tooltips="1" connect="1" arrows="1" fold="1" page="0" pageScale="1" pageWidth="827" pageHeight="1169" math="0" shadow="0">
      <root>
        <mxCell id="0" />
        <mxCell id="1" parent="0" />
        <mxCell id="WVjzI0nkyGnML-SLzWv1-44" style="edgeStyle=orthogonalEdgeStyle;rounded=0;orthogonalLoop=1;jettySize=auto;html=1;entryX=0.5;entryY=0;entryDx=0;entryDy=0;" edge="1" parent="1" source="WVjzI0nkyGnML-SLzWv1-3" target="WVjzI0nkyGnML-SLzWv1-25">
          <mxGeometry relative="1" as="geometry" />
        </mxCell>
        <mxCell id="WVjzI0nkyGnML-SLzWv1-3" value="BankAccount" style="swimlane;fontStyle=1;align=center;verticalAlign=top;childLayout=stackLayout;horizontal=1;startSize=26;horizontalStack=0;resizeParent=1;resizeParentMax=0;resizeLast=0;collapsible=1;marginBottom=0;whiteSpace=wrap;html=1;" vertex="1" parent="1">
          <mxGeometry x="100" y="90" width="240" height="242" as="geometry" />
        </mxCell>
        <mxCell id="WVjzI0nkyGnML-SLzWv1-18" value="+ bankAccountID: UUID" style="text;strokeColor=none;fillColor=none;align=left;verticalAlign=top;spacingLeft=4;spacingRight=4;overflow=hidden;rotatable=0;points=[[0,0.5],[1,0.5]];portConstraint=eastwest;whiteSpace=wrap;html=1;" vertex="1" parent="WVjzI0nkyGnML-SLzWv1-3">
          <mxGeometry y="26" width="240" height="26" as="geometry" />
        </mxCell>
        <mxCell id="WVjzI0nkyGnML-SLzWv1-4" value="+ transactionHistory: Transaction[]" style="text;strokeColor=none;fillColor=none;align=left;verticalAlign=top;spacingLeft=4;spacingRight=4;overflow=hidden;rotatable=0;points=[[0,0.5],[1,0.5]];portConstraint=eastwest;whiteSpace=wrap;html=1;" vertex="1" parent="WVjzI0nkyGnML-SLzWv1-3">
          <mxGeometry y="52" width="240" height="26" as="geometry" />
        </mxCell>
        <mxCell id="WVjzI0nkyGnML-SLzWv1-88" value="+ labels: Label[]" style="text;strokeColor=none;fillColor=none;align=left;verticalAlign=top;spacingLeft=4;spacingRight=4;overflow=hidden;rotatable=0;points=[[0,0.5],[1,0.5]];portConstraint=eastwest;whiteSpace=wrap;html=1;" vertex="1" parent="WVjzI0nkyGnML-SLzWv1-3">
          <mxGeometry y="78" width="240" height="26" as="geometry" />
        </mxCell>
        <mxCell id="WVjzI0nkyGnML-SLzWv1-24" value="+ accountDescription: String" style="text;strokeColor=none;fillColor=none;align=left;verticalAlign=top;spacingLeft=4;spacingRight=4;overflow=hidden;rotatable=0;points=[[0,0.5],[1,0.5]];portConstraint=eastwest;whiteSpace=wrap;html=1;" vertex="1" parent="WVjzI0nkyGnML-SLzWv1-3">
          <mxGeometry y="104" width="240" height="26" as="geometry" />
        </mxCell>
        <mxCell id="WVjzI0nkyGnML-SLzWv1-5" value="" style="line;strokeWidth=1;fillColor=none;align=left;verticalAlign=middle;spacingTop=-1;spacingLeft=3;spacingRight=3;rotatable=0;labelPosition=right;points=[];portConstraint=eastwest;strokeColor=inherit;" vertex="1" parent="WVjzI0nkyGnML-SLzWv1-3">
          <mxGeometry y="130" width="240" height="8" as="geometry" />
        </mxCell>
        <mxCell id="WVjzI0nkyGnML-SLzWv1-6" value="+ getBalance(): double" style="text;strokeColor=none;fillColor=none;align=left;verticalAlign=top;spacingLeft=4;spacingRight=4;overflow=hidden;rotatable=0;points=[[0,0.5],[1,0.5]];portConstraint=eastwest;whiteSpace=wrap;html=1;" vertex="1" parent="WVjzI0nkyGnML-SLzWv1-3">
          <mxGeometry y="138" width="240" height="26" as="geometry" />
        </mxCell>
        <mxCell id="WVjzI0nkyGnML-SLzWv1-22" value="+ addTransaction(t :Transaction): void" style="text;strokeColor=none;fillColor=none;align=left;verticalAlign=top;spacingLeft=4;spacingRight=4;overflow=hidden;rotatable=0;points=[[0,0.5],[1,0.5]];portConstraint=eastwest;whiteSpace=wrap;html=1;" vertex="1" parent="WVjzI0nkyGnML-SLzWv1-3">
          <mxGeometry y="164" width="240" height="26" as="geometry" />
        </mxCell>
        <mxCell id="WVjzI0nkyGnML-SLzWv1-23" value="+ removeTransaction(t: Transaction): void" style="text;strokeColor=none;fillColor=none;align=left;verticalAlign=top;spacingLeft=4;spacingRight=4;overflow=hidden;rotatable=0;points=[[0,0.5],[1,0.5]];portConstraint=eastwest;whiteSpace=wrap;html=1;" vertex="1" parent="WVjzI0nkyGnML-SLzWv1-3">
          <mxGeometry y="190" width="240" height="26" as="geometry" />
        </mxCell>
        <mxCell id="WVjzI0nkyGnML-SLzWv1-73" value="+ getTransactionHistory(): BankAccount[]" style="text;strokeColor=none;fillColor=none;align=left;verticalAlign=top;spacingLeft=4;spacingRight=4;overflow=hidden;rotatable=0;points=[[0,0.5],[1,0.5]];portConstraint=eastwest;whiteSpace=wrap;html=1;" vertex="1" parent="WVjzI0nkyGnML-SLzWv1-3">
          <mxGeometry y="216" width="240" height="26" as="geometry" />
        </mxCell>
        <mxCell id="WVjzI0nkyGnML-SLzWv1-13" value="Transaction" style="swimlane;fontStyle=1;align=center;verticalAlign=top;childLayout=stackLayout;horizontal=1;startSize=26;horizontalStack=0;resizeParent=1;resizeParentMax=0;resizeLast=0;collapsible=1;marginBottom=0;whiteSpace=wrap;html=1;" vertex="1" parent="1">
          <mxGeometry x="590" y="116" width="160" height="190" as="geometry" />
        </mxCell>
        <mxCell id="WVjzI0nkyGnML-SLzWv1-14" value="+ monetaryValue: double" style="text;strokeColor=none;fillColor=none;align=left;verticalAlign=top;spacingLeft=4;spacingRight=4;overflow=hidden;rotatable=0;points=[[0,0.5],[1,0.5]];portConstraint=eastwest;whiteSpace=wrap;html=1;" vertex="1" parent="WVjzI0nkyGnML-SLzWv1-13">
          <mxGeometry y="26" width="160" height="26" as="geometry" />
        </mxCell>
        <mxCell id="WVjzI0nkyGnML-SLzWv1-20" value="+ transactionID: UUID" style="text;strokeColor=none;fillColor=none;align=left;verticalAlign=top;spacingLeft=4;spacingRight=4;overflow=hidden;rotatable=0;points=[[0,0.5],[1,0.5]];portConstraint=eastwest;whiteSpace=wrap;html=1;" vertex="1" parent="WVjzI0nkyGnML-SLzWv1-13">
          <mxGeometry y="52" width="160" height="26" as="geometry" />
        </mxCell>
        <mxCell id="WVjzI0nkyGnML-SLzWv1-89" value="+ labels: Label[]" style="text;strokeColor=none;fillColor=none;align=left;verticalAlign=top;spacingLeft=4;spacingRight=4;overflow=hidden;rotatable=0;points=[[0,0.5],[1,0.5]];portConstraint=eastwest;whiteSpace=wrap;html=1;" vertex="1" parent="WVjzI0nkyGnML-SLzWv1-13">
          <mxGeometry y="78" width="160" height="26" as="geometry" />
        </mxCell>
        <mxCell id="WVjzI0nkyGnML-SLzWv1-30" value="+ bankAccount: UUID" style="text;strokeColor=none;fillColor=none;align=left;verticalAlign=top;spacingLeft=4;spacingRight=4;overflow=hidden;rotatable=0;points=[[0,0.5],[1,0.5]];portConstraint=eastwest;whiteSpace=wrap;html=1;" vertex="1" parent="WVjzI0nkyGnML-SLzWv1-13">
          <mxGeometry y="104" width="160" height="26" as="geometry" />
        </mxCell>
        <mxCell id="WVjzI0nkyGnML-SLzWv1-74" value="+ transactionDate: Date" style="text;strokeColor=none;fillColor=none;align=left;verticalAlign=top;spacingLeft=4;spacingRight=4;overflow=hidden;rotatable=0;points=[[0,0.5],[1,0.5]];portConstraint=eastwest;whiteSpace=wrap;html=1;" vertex="1" parent="WVjzI0nkyGnML-SLzWv1-13">
          <mxGeometry y="130" width="160" height="26" as="geometry" />
        </mxCell>
        <mxCell id="WVjzI0nkyGnML-SLzWv1-81" value="+ transactionType: Type" style="text;strokeColor=none;fillColor=none;align=left;verticalAlign=top;spacingLeft=4;spacingRight=4;overflow=hidden;rotatable=0;points=[[0,0.5],[1,0.5]];portConstraint=eastwest;whiteSpace=wrap;html=1;" vertex="1" parent="WVjzI0nkyGnML-SLzWv1-13">
          <mxGeometry y="156" width="160" height="26" as="geometry" />
        </mxCell>
        <mxCell id="WVjzI0nkyGnML-SLzWv1-15" value="" style="line;strokeWidth=1;fillColor=none;align=left;verticalAlign=middle;spacingTop=-1;spacingLeft=3;spacingRight=3;rotatable=0;labelPosition=right;points=[];portConstraint=eastwest;strokeColor=inherit;" vertex="1" parent="WVjzI0nkyGnML-SLzWv1-13">
          <mxGeometry y="182" width="160" height="8" as="geometry" />
        </mxCell>
        <mxCell id="WVjzI0nkyGnML-SLzWv1-21" style="edgeStyle=orthogonalEdgeStyle;rounded=0;orthogonalLoop=1;jettySize=auto;html=1;" edge="1" parent="1" source="WVjzI0nkyGnML-SLzWv1-13" target="WVjzI0nkyGnML-SLzWv1-3">
          <mxGeometry relative="1" as="geometry" />
        </mxCell>
        <mxCell id="WVjzI0nkyGnML-SLzWv1-25" value="AccountManager" style="swimlane;fontStyle=1;align=center;verticalAlign=top;childLayout=stackLayout;horizontal=1;startSize=26;horizontalStack=0;resizeParent=1;resizeParentMax=0;resizeLast=0;collapsible=1;marginBottom=0;whiteSpace=wrap;html=1;" vertex="1" parent="1">
          <mxGeometry x="90" y="430" width="260" height="242" as="geometry" />
        </mxCell>
        <mxCell id="WVjzI0nkyGnML-SLzWv1-26" value="+ bankAccounts: BankAccount[]" style="text;strokeColor=none;fillColor=none;align=left;verticalAlign=top;spacingLeft=4;spacingRight=4;overflow=hidden;rotatable=0;points=[[0,0.5],[1,0.5]];portConstraint=eastwest;whiteSpace=wrap;html=1;" vertex="1" parent="WVjzI0nkyGnML-SLzWv1-25">
          <mxGeometry y="26" width="260" height="26" as="geometry" />
        </mxCell>
        <mxCell id="WVjzI0nkyGnML-SLzWv1-27" value="+ managerID: UUID" style="text;strokeColor=none;fillColor=none;align=left;verticalAlign=top;spacingLeft=4;spacingRight=4;overflow=hidden;rotatable=0;points=[[0,0.5],[1,0.5]];portConstraint=eastwest;whiteSpace=wrap;html=1;" vertex="1" parent="WVjzI0nkyGnML-SLzWv1-25">
          <mxGeometry y="52" width="260" height="26" as="geometry" />
        </mxCell>
        <mxCell id="WVjzI0nkyGnML-SLzWv1-32" value="+ savingGoals: savingGoal[]" style="text;strokeColor=none;fillColor=none;align=left;verticalAlign=top;spacingLeft=4;spacingRight=4;overflow=hidden;rotatable=0;points=[[0,0.5],[1,0.5]];portConstraint=eastwest;whiteSpace=wrap;html=1;" vertex="1" parent="WVjzI0nkyGnML-SLzWv1-25">
          <mxGeometry y="78" width="260" height="26" as="geometry" />
        </mxCell>
        <mxCell id="WVjzI0nkyGnML-SLzWv1-28" value="" style="line;strokeWidth=1;fillColor=none;align=left;verticalAlign=middle;spacingTop=-1;spacingLeft=3;spacingRight=3;rotatable=0;labelPosition=right;points=[];portConstraint=eastwest;strokeColor=inherit;" vertex="1" parent="WVjzI0nkyGnML-SLzWv1-25">
          <mxGeometry y="104" width="260" height="8" as="geometry" />
        </mxCell>
        <mxCell id="WVjzI0nkyGnML-SLzWv1-29" value="+ getFinanceData(): BankAccounts[]" style="text;strokeColor=none;fillColor=none;align=left;verticalAlign=top;spacingLeft=4;spacingRight=4;overflow=hidden;rotatable=0;points=[[0,0.5],[1,0.5]];portConstraint=eastwest;whiteSpace=wrap;html=1;" vertex="1" parent="WVjzI0nkyGnML-SLzWv1-25">
          <mxGeometry y="112" width="260" height="26" as="geometry" />
        </mxCell>
        <mxCell id="WVjzI0nkyGnML-SLzWv1-76" value="+ checkSavingGoals(): boolean" style="text;strokeColor=none;fillColor=none;align=left;verticalAlign=top;spacingLeft=4;spacingRight=4;overflow=hidden;rotatable=0;points=[[0,0.5],[1,0.5]];portConstraint=eastwest;whiteSpace=wrap;html=1;" vertex="1" parent="WVjzI0nkyGnML-SLzWv1-25">
          <mxGeometry y="138" width="260" height="26" as="geometry" />
        </mxCell>
        <mxCell id="WVjzI0nkyGnML-SLzWv1-77" value="+ getOverallBalance(): double" style="text;strokeColor=none;fillColor=none;align=left;verticalAlign=top;spacingLeft=4;spacingRight=4;overflow=hidden;rotatable=0;points=[[0,0.5],[1,0.5]];portConstraint=eastwest;whiteSpace=wrap;html=1;" vertex="1" parent="WVjzI0nkyGnML-SLzWv1-25">
          <mxGeometry y="164" width="260" height="26" as="geometry" />
        </mxCell>
        <mxCell id="WVjzI0nkyGnML-SLzWv1-79" value="+ removeBankAccount(b: BankAccount): void" style="text;strokeColor=none;fillColor=none;align=left;verticalAlign=top;spacingLeft=4;spacingRight=4;overflow=hidden;rotatable=0;points=[[0,0.5],[1,0.5]];portConstraint=eastwest;whiteSpace=wrap;html=1;" vertex="1" parent="WVjzI0nkyGnML-SLzWv1-25">
          <mxGeometry y="190" width="260" height="26" as="geometry" />
        </mxCell>
        <mxCell id="WVjzI0nkyGnML-SLzWv1-78" value="+ addBankAccount(b: BankAccount): void" style="text;strokeColor=none;fillColor=none;align=left;verticalAlign=top;spacingLeft=4;spacingRight=4;overflow=hidden;rotatable=0;points=[[0,0.5],[1,0.5]];portConstraint=eastwest;whiteSpace=wrap;html=1;" vertex="1" parent="WVjzI0nkyGnML-SLzWv1-25">
          <mxGeometry y="216" width="260" height="26" as="geometry" />
        </mxCell>
        <mxCell id="WVjzI0nkyGnML-SLzWv1-45" style="edgeStyle=orthogonalEdgeStyle;rounded=0;orthogonalLoop=1;jettySize=auto;html=1;" edge="1" parent="1" source="WVjzI0nkyGnML-SLzWv1-33" target="WVjzI0nkyGnML-SLzWv1-25">
          <mxGeometry relative="1" as="geometry" />
        </mxCell>
        <mxCell id="WVjzI0nkyGnML-SLzWv1-164" style="edgeStyle=orthogonalEdgeStyle;rounded=0;orthogonalLoop=1;jettySize=auto;html=1;entryX=0.5;entryY=0;entryDx=0;entryDy=0;" edge="1" parent="1" source="WVjzI0nkyGnML-SLzWv1-33" target="WVjzI0nkyGnML-SLzWv1-121">
          <mxGeometry relative="1" as="geometry" />
        </mxCell>
        <mxCell id="WVjzI0nkyGnML-SLzWv1-33" value="SavingGoal" style="swimlane;fontStyle=1;align=center;verticalAlign=top;childLayout=stackLayout;horizontal=1;startSize=26;horizontalStack=0;resizeParent=1;resizeParentMax=0;resizeLast=0;collapsible=1;marginBottom=0;whiteSpace=wrap;html=1;" vertex="1" parent="1">
          <mxGeometry x="560" y="469" width="160" height="164" as="geometry" />
        </mxCell>
        <mxCell id="WVjzI0nkyGnML-SLzWv1-34" value="+ goalID: UUID" style="text;strokeColor=none;fillColor=none;align=left;verticalAlign=top;spacingLeft=4;spacingRight=4;overflow=hidden;rotatable=0;points=[[0,0.5],[1,0.5]];portConstraint=eastwest;whiteSpace=wrap;html=1;" vertex="1" parent="WVjzI0nkyGnML-SLzWv1-33">
          <mxGeometry y="26" width="160" height="26" as="geometry" />
        </mxCell>
        <mxCell id="WVjzI0nkyGnML-SLzWv1-19" value="+ description: String" style="text;strokeColor=none;fillColor=none;align=left;verticalAlign=top;spacingLeft=4;spacingRight=4;overflow=hidden;rotatable=0;points=[[0,0.5],[1,0.5]];portConstraint=eastwest;whiteSpace=wrap;html=1;" vertex="1" parent="WVjzI0nkyGnML-SLzWv1-33">
          <mxGeometry y="52" width="160" height="26" as="geometry" />
        </mxCell>
        <mxCell id="WVjzI0nkyGnML-SLzWv1-153" value="+ attachedAccounts: UUID[]" style="text;strokeColor=none;fillColor=none;align=left;verticalAlign=top;spacingLeft=4;spacingRight=4;overflow=hidden;rotatable=0;points=[[0,0.5],[1,0.5]];portConstraint=eastwest;whiteSpace=wrap;html=1;" vertex="1" parent="WVjzI0nkyGnML-SLzWv1-33">
          <mxGeometry y="78" width="160" height="26" as="geometry" />
        </mxCell>
        <mxCell id="WVjzI0nkyGnML-SLzWv1-38" value="+ savingRule: SavingRule" style="text;strokeColor=none;fillColor=none;align=left;verticalAlign=top;spacingLeft=4;spacingRight=4;overflow=hidden;rotatable=0;points=[[0,0.5],[1,0.5]];portConstraint=eastwest;whiteSpace=wrap;html=1;" vertex="1" parent="WVjzI0nkyGnML-SLzWv1-33">
          <mxGeometry y="104" width="160" height="26" as="geometry" />
        </mxCell>
        <mxCell id="WVjzI0nkyGnML-SLzWv1-35" value="" style="line;strokeWidth=1;fillColor=none;align=left;verticalAlign=middle;spacingTop=-1;spacingLeft=3;spacingRight=3;rotatable=0;labelPosition=right;points=[];portConstraint=eastwest;strokeColor=inherit;" vertex="1" parent="WVjzI0nkyGnML-SLzWv1-33">
          <mxGeometry y="130" width="160" height="8" as="geometry" />
        </mxCell>
        <mxCell id="WVjzI0nkyGnML-SLzWv1-36" value="+ applyRules(): Boolean" style="text;strokeColor=none;fillColor=none;align=left;verticalAlign=top;spacingLeft=4;spacingRight=4;overflow=hidden;rotatable=0;points=[[0,0.5],[1,0.5]];portConstraint=eastwest;whiteSpace=wrap;html=1;" vertex="1" parent="WVjzI0nkyGnML-SLzWv1-33">
          <mxGeometry y="138" width="160" height="26" as="geometry" />
        </mxCell>
        <mxCell id="WVjzI0nkyGnML-SLzWv1-71" style="edgeStyle=orthogonalEdgeStyle;rounded=0;orthogonalLoop=1;jettySize=auto;html=1;entryX=0.5;entryY=0;entryDx=0;entryDy=0;endArrow=open;endFill=0;" edge="1" parent="1" source="WVjzI0nkyGnML-SLzWv1-62" target="WVjzI0nkyGnML-SLzWv1-3">
          <mxGeometry relative="1" as="geometry" />
        </mxCell>
        <mxCell id="WVjzI0nkyGnML-SLzWv1-72" value="persists" style="edgeLabel;html=1;align=center;verticalAlign=middle;resizable=0;points=[];" vertex="1" connectable="0" parent="WVjzI0nkyGnML-SLzWv1-71">
          <mxGeometry x="-0.1098" relative="1" as="geometry">
            <mxPoint as="offset" />
          </mxGeometry>
        </mxCell>
        <mxCell id="WVjzI0nkyGnML-SLzWv1-62" value="&amp;lt;&amp;lt;repository&amp;gt;&amp;gt;&lt;br&gt;BankAccountRepository" style="swimlane;fontStyle=1;align=center;verticalAlign=top;childLayout=stackLayout;horizontal=1;startSize=40;horizontalStack=0;resizeParent=1;resizeParentMax=0;resizeLast=0;collapsible=1;marginBottom=0;whiteSpace=wrap;html=1;" vertex="1" parent="1">
          <mxGeometry x="100" y="-142" width="240" height="152" as="geometry" />
        </mxCell>
        <mxCell id="WVjzI0nkyGnML-SLzWv1-66" value="" style="line;strokeWidth=1;fillColor=none;align=left;verticalAlign=middle;spacingTop=-1;spacingLeft=3;spacingRight=3;rotatable=0;labelPosition=right;points=[];portConstraint=eastwest;strokeColor=inherit;" vertex="1" parent="WVjzI0nkyGnML-SLzWv1-62">
          <mxGeometry y="40" width="240" height="8" as="geometry" />
        </mxCell>
        <mxCell id="WVjzI0nkyGnML-SLzWv1-67" value="+ storeBankAccount(b: BankAccount)" style="text;strokeColor=none;fillColor=none;align=left;verticalAlign=top;spacingLeft=4;spacingRight=4;overflow=hidden;rotatable=0;points=[[0,0.5],[1,0.5]];portConstraint=eastwest;whiteSpace=wrap;html=1;" vertex="1" parent="WVjzI0nkyGnML-SLzWv1-62">
          <mxGeometry y="48" width="240" height="26" as="geometry" />
        </mxCell>
        <mxCell id="WVjzI0nkyGnML-SLzWv1-68" value="+ getBankAccount(id: UUID)" style="text;strokeColor=none;fillColor=none;align=left;verticalAlign=top;spacingLeft=4;spacingRight=4;overflow=hidden;rotatable=0;points=[[0,0.5],[1,0.5]];portConstraint=eastwest;whiteSpace=wrap;html=1;" vertex="1" parent="WVjzI0nkyGnML-SLzWv1-62">
          <mxGeometry y="74" width="240" height="26" as="geometry" />
        </mxCell>
        <mxCell id="WVjzI0nkyGnML-SLzWv1-69" value="+ removeBankAccount(id: UUID)" style="text;strokeColor=none;fillColor=none;align=left;verticalAlign=top;spacingLeft=4;spacingRight=4;overflow=hidden;rotatable=0;points=[[0,0.5],[1,0.5]];portConstraint=eastwest;whiteSpace=wrap;html=1;" vertex="1" parent="WVjzI0nkyGnML-SLzWv1-62">
          <mxGeometry y="100" width="240" height="26" as="geometry" />
        </mxCell>
        <mxCell id="WVjzI0nkyGnML-SLzWv1-37" value="+ getAllBankAccounts(): BankAccount[]" style="text;strokeColor=none;fillColor=none;align=left;verticalAlign=top;spacingLeft=4;spacingRight=4;overflow=hidden;rotatable=0;points=[[0,0.5],[1,0.5]];portConstraint=eastwest;whiteSpace=wrap;html=1;" vertex="1" parent="WVjzI0nkyGnML-SLzWv1-62">
          <mxGeometry y="126" width="240" height="26" as="geometry" />
        </mxCell>
        <mxCell id="WVjzI0nkyGnML-SLzWv1-86" style="edgeStyle=orthogonalEdgeStyle;rounded=0;orthogonalLoop=1;jettySize=auto;html=1;" edge="1" parent="1" source="WVjzI0nkyGnML-SLzWv1-82" target="WVjzI0nkyGnML-SLzWv1-13">
          <mxGeometry relative="1" as="geometry" />
        </mxCell>
        <mxCell id="WVjzI0nkyGnML-SLzWv1-82" value="&amp;lt;&amp;lt;Enum&amp;gt;&amp;gt;&lt;br&gt;Type" style="swimlane;fontStyle=1;align=center;verticalAlign=top;childLayout=stackLayout;horizontal=1;startSize=40;horizontalStack=0;resizeParent=1;resizeParentMax=0;resizeLast=0;collapsible=1;marginBottom=0;whiteSpace=wrap;html=1;" vertex="1" parent="1">
          <mxGeometry x="590" y="-82" width="160" height="92" as="geometry" />
        </mxCell>
        <mxCell id="WVjzI0nkyGnML-SLzWv1-83" value="INCOME" style="text;strokeColor=none;fillColor=none;align=left;verticalAlign=top;spacingLeft=4;spacingRight=4;overflow=hidden;rotatable=0;points=[[0,0.5],[1,0.5]];portConstraint=eastwest;whiteSpace=wrap;html=1;" vertex="1" parent="WVjzI0nkyGnML-SLzWv1-82">
          <mxGeometry y="40" width="160" height="26" as="geometry" />
        </mxCell>
        <mxCell id="WVjzI0nkyGnML-SLzWv1-87" value="EXPENSE" style="text;strokeColor=none;fillColor=none;align=left;verticalAlign=top;spacingLeft=4;spacingRight=4;overflow=hidden;rotatable=0;points=[[0,0.5],[1,0.5]];portConstraint=eastwest;whiteSpace=wrap;html=1;" vertex="1" parent="WVjzI0nkyGnML-SLzWv1-82">
          <mxGeometry y="66" width="160" height="26" as="geometry" />
        </mxCell>
        <mxCell id="WVjzI0nkyGnML-SLzWv1-93" style="edgeStyle=orthogonalEdgeStyle;rounded=0;orthogonalLoop=1;jettySize=auto;html=1;endArrow=none;endFill=0;" edge="1" parent="1" source="WVjzI0nkyGnML-SLzWv1-90" target="WVjzI0nkyGnML-SLzWv1-4">
          <mxGeometry relative="1" as="geometry" />
        </mxCell>
        <mxCell id="WVjzI0nkyGnML-SLzWv1-96" style="edgeStyle=orthogonalEdgeStyle;rounded=0;orthogonalLoop=1;jettySize=auto;html=1;entryX=0;entryY=0.5;entryDx=0;entryDy=0;endArrow=none;endFill=0;" edge="1" parent="1" source="WVjzI0nkyGnML-SLzWv1-90" target="WVjzI0nkyGnML-SLzWv1-20">
          <mxGeometry relative="1" as="geometry" />
        </mxCell>
        <mxCell id="WVjzI0nkyGnML-SLzWv1-90" value="&amp;lt;&amp;lt;Value Object&amp;gt;&amp;gt;&lt;br&gt;Label" style="swimlane;fontStyle=1;align=center;verticalAlign=top;childLayout=stackLayout;horizontal=1;startSize=40;horizontalStack=0;resizeParent=1;resizeParentMax=0;resizeLast=0;collapsible=1;marginBottom=0;whiteSpace=wrap;html=1;" vertex="1" parent="1">
          <mxGeometry x="390" y="122" width="160" height="66" as="geometry" />
        </mxCell>
        <mxCell id="WVjzI0nkyGnML-SLzWv1-98" value="0...*" style="text;html=1;align=center;verticalAlign=middle;resizable=0;points=[];autosize=1;strokeColor=none;fillColor=none;" vertex="1" parent="1">
          <mxGeometry x="230" y="332" width="40" height="30" as="geometry" />
        </mxCell>
        <mxCell id="WVjzI0nkyGnML-SLzWv1-99" value="0...*" style="text;html=1;align=center;verticalAlign=middle;resizable=0;points=[];autosize=1;strokeColor=none;fillColor=none;" vertex="1" parent="1">
          <mxGeometry x="520" y="490" width="40" height="30" as="geometry" />
        </mxCell>
        <mxCell id="WVjzI0nkyGnML-SLzWv1-100" value="0...*" style="text;html=1;align=center;verticalAlign=middle;resizable=0;points=[];autosize=1;strokeColor=none;fillColor=none;" vertex="1" parent="1">
          <mxGeometry x="550" y="217" width="40" height="30" as="geometry" />
        </mxCell>
        <mxCell id="WVjzI0nkyGnML-SLzWv1-104" value="" style="group;rotation=-90;" vertex="1" connectable="0" parent="1">
          <mxGeometry x="170" y="362" width="65" height="30" as="geometry" />
        </mxCell>
        <mxCell id="WVjzI0nkyGnML-SLzWv1-102" value="has" style="text;html=1;align=center;verticalAlign=middle;resizable=0;points=[];autosize=1;strokeColor=none;fillColor=none;rotation=-90;" vertex="1" parent="WVjzI0nkyGnML-SLzWv1-104">
          <mxGeometry x="13" y="-12" width="40" height="30" as="geometry" />
        </mxCell>
        <mxCell id="WVjzI0nkyGnML-SLzWv1-103" value="" style="triangle;whiteSpace=wrap;html=1;rotation=-270;fillColor=#000000;" vertex="1" parent="WVjzI0nkyGnML-SLzWv1-104">
          <mxGeometry x="20" y="26" width="25" height="18" as="geometry" />
        </mxCell>
        <mxCell id="WVjzI0nkyGnML-SLzWv1-105" value="" style="group" vertex="1" connectable="0" parent="1">
          <mxGeometry x="435" y="210" width="65" height="30" as="geometry" />
        </mxCell>
        <mxCell id="WVjzI0nkyGnML-SLzWv1-106" value="has" style="text;html=1;align=center;verticalAlign=middle;resizable=0;points=[];autosize=1;strokeColor=none;fillColor=none;" vertex="1" parent="WVjzI0nkyGnML-SLzWv1-105">
          <mxGeometry x="25" width="40" height="30" as="geometry" />
        </mxCell>
        <mxCell id="WVjzI0nkyGnML-SLzWv1-107" value="" style="triangle;whiteSpace=wrap;html=1;rotation=-180;fillColor=#000000;" vertex="1" parent="WVjzI0nkyGnML-SLzWv1-105">
          <mxGeometry y="6" width="25" height="18" as="geometry" />
        </mxCell>
        <mxCell id="WVjzI0nkyGnML-SLzWv1-108" value="" style="group;rotation=-90;" vertex="1" connectable="0" parent="1">
          <mxGeometry x="620" y="50" width="110" height="132" as="geometry" />
        </mxCell>
        <mxCell id="WVjzI0nkyGnML-SLzWv1-109" value="has" style="text;html=1;align=center;verticalAlign=middle;resizable=0;points=[];autosize=1;strokeColor=none;fillColor=none;rotation=-90;" vertex="1" parent="WVjzI0nkyGnML-SLzWv1-108">
          <mxGeometry x="13" y="-12" width="40" height="30" as="geometry" />
        </mxCell>
        <mxCell id="WVjzI0nkyGnML-SLzWv1-110" value="" style="triangle;whiteSpace=wrap;html=1;rotation=-270;fillColor=#000000;" vertex="1" parent="WVjzI0nkyGnML-SLzWv1-108">
          <mxGeometry x="20" y="26" width="25" height="18" as="geometry" />
        </mxCell>
        <mxCell id="WVjzI0nkyGnML-SLzWv1-111" value="" style="group" vertex="1" connectable="0" parent="1">
          <mxGeometry x="420" y="520" width="65" height="30" as="geometry" />
        </mxCell>
        <mxCell id="WVjzI0nkyGnML-SLzWv1-112" value="has" style="text;html=1;align=center;verticalAlign=middle;resizable=0;points=[];autosize=1;strokeColor=none;fillColor=none;" vertex="1" parent="WVjzI0nkyGnML-SLzWv1-111">
          <mxGeometry x="25" width="40" height="30" as="geometry" />
        </mxCell>
        <mxCell id="WVjzI0nkyGnML-SLzWv1-113" value="" style="triangle;whiteSpace=wrap;html=1;rotation=-180;fillColor=#000000;" vertex="1" parent="WVjzI0nkyGnML-SLzWv1-111">
          <mxGeometry y="6" width="25" height="18" as="geometry" />
        </mxCell>
        <mxCell id="WVjzI0nkyGnML-SLzWv1-114" value="&amp;lt;&amp;lt;repository&amp;gt;&amp;gt;&lt;br&gt;SavingsRuleRepository" style="swimlane;fontStyle=1;align=center;verticalAlign=top;childLayout=stackLayout;horizontal=1;startSize=40;horizontalStack=0;resizeParent=1;resizeParentMax=0;resizeLast=0;collapsible=1;marginBottom=0;whiteSpace=wrap;html=1;" vertex="1" parent="1">
          <mxGeometry x="80" y="753" width="240" height="152" as="geometry" />
        </mxCell>
        <mxCell id="WVjzI0nkyGnML-SLzWv1-115" value="" style="line;strokeWidth=1;fillColor=none;align=left;verticalAlign=middle;spacingTop=-1;spacingLeft=3;spacingRight=3;rotatable=0;labelPosition=right;points=[];portConstraint=eastwest;strokeColor=inherit;" vertex="1" parent="WVjzI0nkyGnML-SLzWv1-114">
          <mxGeometry y="40" width="240" height="8" as="geometry" />
        </mxCell>
        <mxCell id="WVjzI0nkyGnML-SLzWv1-116" value="+ storeSavingsRule(s: SavingsRule)" style="text;strokeColor=none;fillColor=none;align=left;verticalAlign=top;spacingLeft=4;spacingRight=4;overflow=hidden;rotatable=0;points=[[0,0.5],[1,0.5]];portConstraint=eastwest;whiteSpace=wrap;html=1;" vertex="1" parent="WVjzI0nkyGnML-SLzWv1-114">
          <mxGeometry y="48" width="240" height="26" as="geometry" />
        </mxCell>
        <mxCell id="WVjzI0nkyGnML-SLzWv1-117" value="+ getSavingsRule(id: UUID)" style="text;strokeColor=none;fillColor=none;align=left;verticalAlign=top;spacingLeft=4;spacingRight=4;overflow=hidden;rotatable=0;points=[[0,0.5],[1,0.5]];portConstraint=eastwest;whiteSpace=wrap;html=1;" vertex="1" parent="WVjzI0nkyGnML-SLzWv1-114">
          <mxGeometry y="74" width="240" height="26" as="geometry" />
        </mxCell>
        <mxCell id="WVjzI0nkyGnML-SLzWv1-118" value="+ removeSavingsRule(id: UUID)" style="text;strokeColor=none;fillColor=none;align=left;verticalAlign=top;spacingLeft=4;spacingRight=4;overflow=hidden;rotatable=0;points=[[0,0.5],[1,0.5]];portConstraint=eastwest;whiteSpace=wrap;html=1;" vertex="1" parent="WVjzI0nkyGnML-SLzWv1-114">
          <mxGeometry y="100" width="240" height="26" as="geometry" />
        </mxCell>
        <mxCell id="WVjzI0nkyGnML-SLzWv1-119" value="+ getAllSavingsRules(): SavingsRule[]" style="text;strokeColor=none;fillColor=none;align=left;verticalAlign=top;spacingLeft=4;spacingRight=4;overflow=hidden;rotatable=0;points=[[0,0.5],[1,0.5]];portConstraint=eastwest;whiteSpace=wrap;html=1;" vertex="1" parent="WVjzI0nkyGnML-SLzWv1-114">
          <mxGeometry y="126" width="240" height="26" as="geometry" />
        </mxCell>
        <mxCell id="WVjzI0nkyGnML-SLzWv1-121" value="&amp;lt;&amp;lt;abstract&amp;gt;&amp;gt;&lt;br&gt;SavingsRule" style="swimlane;fontStyle=1;align=center;verticalAlign=top;childLayout=stackLayout;horizontal=1;startSize=42;horizontalStack=0;resizeParent=1;resizeParentMax=0;resizeLast=0;collapsible=1;marginBottom=0;whiteSpace=wrap;html=1;" vertex="1" parent="1">
          <mxGeometry x="545" y="750" width="190" height="180" as="geometry" />
        </mxCell>
        <mxCell id="WVjzI0nkyGnML-SLzWv1-122" value="+ goalID: UUID" style="text;strokeColor=none;fillColor=none;align=left;verticalAlign=top;spacingLeft=4;spacingRight=4;overflow=hidden;rotatable=0;points=[[0,0.5],[1,0.5]];portConstraint=eastwest;whiteSpace=wrap;html=1;" vertex="1" parent="WVjzI0nkyGnML-SLzWv1-121">
          <mxGeometry y="42" width="190" height="26" as="geometry" />
        </mxCell>
        <mxCell id="WVjzI0nkyGnML-SLzWv1-123" value="+ description: String" style="text;strokeColor=none;fillColor=none;align=left;verticalAlign=top;spacingLeft=4;spacingRight=4;overflow=hidden;rotatable=0;points=[[0,0.5],[1,0.5]];portConstraint=eastwest;whiteSpace=wrap;html=1;" vertex="1" parent="WVjzI0nkyGnML-SLzWv1-121">
          <mxGeometry y="68" width="190" height="26" as="geometry" />
        </mxCell>
        <mxCell id="WVjzI0nkyGnML-SLzWv1-124" value="+ MonetaryAmount: double" style="text;strokeColor=none;fillColor=none;align=left;verticalAlign=top;spacingLeft=4;spacingRight=4;overflow=hidden;rotatable=0;points=[[0,0.5],[1,0.5]];portConstraint=eastwest;whiteSpace=wrap;html=1;" vertex="1" parent="WVjzI0nkyGnML-SLzWv1-121">
          <mxGeometry y="94" width="190" height="26" as="geometry" />
        </mxCell>
        <mxCell id="WVjzI0nkyGnML-SLzWv1-137" value="+ Type: Enum" style="text;strokeColor=none;fillColor=none;align=left;verticalAlign=top;spacingLeft=4;spacingRight=4;overflow=hidden;rotatable=0;points=[[0,0.5],[1,0.5]];portConstraint=eastwest;whiteSpace=wrap;html=1;" vertex="1" parent="WVjzI0nkyGnML-SLzWv1-121">
          <mxGeometry y="120" width="190" height="26" as="geometry" />
        </mxCell>
        <mxCell id="WVjzI0nkyGnML-SLzWv1-125" value="" style="line;strokeWidth=1;fillColor=none;align=left;verticalAlign=middle;spacingTop=-1;spacingLeft=3;spacingRight=3;rotatable=0;labelPosition=right;points=[];portConstraint=eastwest;strokeColor=inherit;" vertex="1" parent="WVjzI0nkyGnML-SLzWv1-121">
          <mxGeometry y="146" width="190" height="8" as="geometry" />
        </mxCell>
        <mxCell id="WVjzI0nkyGnML-SLzWv1-126" value="+ applyRule(): Boolean" style="text;strokeColor=none;fillColor=none;align=left;verticalAlign=top;spacingLeft=4;spacingRight=4;overflow=hidden;rotatable=0;points=[[0,0.5],[1,0.5]];portConstraint=eastwest;whiteSpace=wrap;html=1;" vertex="1" parent="WVjzI0nkyGnML-SLzWv1-121">
          <mxGeometry y="154" width="190" height="26" as="geometry" />
        </mxCell>
        <mxCell id="WVjzI0nkyGnML-SLzWv1-127" style="edgeStyle=orthogonalEdgeStyle;rounded=0;orthogonalLoop=1;jettySize=auto;html=1;" edge="1" parent="1" source="WVjzI0nkyGnML-SLzWv1-117" target="WVjzI0nkyGnML-SLzWv1-121">
          <mxGeometry relative="1" as="geometry" />
        </mxCell>
        <mxCell id="WVjzI0nkyGnML-SLzWv1-128" value="Persists" style="edgeLabel;html=1;align=center;verticalAlign=middle;resizable=0;points=[];" vertex="1" connectable="0" parent="WVjzI0nkyGnML-SLzWv1-127">
          <mxGeometry x="0.2164" y="-3" relative="1" as="geometry">
            <mxPoint as="offset" />
          </mxGeometry>
        </mxCell>
        <mxCell id="WVjzI0nkyGnML-SLzWv1-148" style="edgeStyle=orthogonalEdgeStyle;rounded=0;orthogonalLoop=1;jettySize=auto;html=1;endArrow=none;endFill=0;" edge="1" parent="1" source="WVjzI0nkyGnML-SLzWv1-138" target="WVjzI0nkyGnML-SLzWv1-121">
          <mxGeometry relative="1" as="geometry" />
        </mxCell>
        <mxCell id="WVjzI0nkyGnML-SLzWv1-138" value="Type" style="swimlane;fontStyle=1;align=center;verticalAlign=top;childLayout=stackLayout;horizontal=1;startSize=26;horizontalStack=0;resizeParent=1;resizeParentMax=0;resizeLast=0;collapsible=1;marginBottom=0;whiteSpace=wrap;html=1;" vertex="1" parent="1">
          <mxGeometry x="870" y="784" width="160" height="112" as="geometry" />
        </mxCell>
        <mxCell id="WVjzI0nkyGnML-SLzWv1-70" value="EqualsRule&lt;br&gt;" style="text;strokeColor=none;fillColor=none;align=left;verticalAlign=top;spacingLeft=4;spacingRight=4;overflow=hidden;rotatable=0;points=[[0,0.5],[1,0.5]];portConstraint=eastwest;whiteSpace=wrap;html=1;" vertex="1" parent="WVjzI0nkyGnML-SLzWv1-138">
          <mxGeometry y="26" width="160" height="26" as="geometry" />
        </mxCell>
        <mxCell id="WVjzI0nkyGnML-SLzWv1-163" value="GreaterThanRule" style="text;strokeColor=none;fillColor=none;align=left;verticalAlign=top;spacingLeft=4;spacingRight=4;overflow=hidden;rotatable=0;points=[[0,0.5],[1,0.5]];portConstraint=eastwest;whiteSpace=wrap;html=1;" vertex="1" parent="WVjzI0nkyGnML-SLzWv1-138">
          <mxGeometry y="52" width="160" height="26" as="geometry" />
        </mxCell>
        <mxCell id="WVjzI0nkyGnML-SLzWv1-162" value="SmallerThanRule" style="text;strokeColor=none;fillColor=none;align=left;verticalAlign=top;spacingLeft=4;spacingRight=4;overflow=hidden;rotatable=0;points=[[0,0.5],[1,0.5]];portConstraint=eastwest;whiteSpace=wrap;html=1;" vertex="1" parent="WVjzI0nkyGnML-SLzWv1-138">
          <mxGeometry y="78" width="160" height="26" as="geometry" />
        </mxCell>
        <mxCell id="WVjzI0nkyGnML-SLzWv1-140" value="" style="line;strokeWidth=1;fillColor=none;align=left;verticalAlign=middle;spacingTop=-1;spacingLeft=3;spacingRight=3;rotatable=0;labelPosition=right;points=[];portConstraint=eastwest;strokeColor=inherit;" vertex="1" parent="WVjzI0nkyGnML-SLzWv1-138">
          <mxGeometry y="104" width="160" height="8" as="geometry" />
        </mxCell>
        <mxCell id="WVjzI0nkyGnML-SLzWv1-165" value="0...*" style="text;html=1;align=center;verticalAlign=middle;resizable=0;points=[];autosize=1;strokeColor=none;fillColor=none;" vertex="1" parent="1">
          <mxGeometry x="660" y="720" width="40" height="30" as="geometry" />
        </mxCell>
      </root>
    </mxGraphModel>
  </diagram>
</mxfile>
